# xmcd
#
# Track frame offsets:
#	150
#	13306
#	26921
#	40054
#	53037
#	66253
#	78997
#	93694
#	107469
#	117429
#	127795
#	140823
#
# Disc length: 2018 seconds
#
# Revision: 0
# Processed by: cddbd v1.5.2PL0 Copyright (c) Steve Scherf et al.
# Submitted via: EasyCDDAExtractor 16.0.1.1
#
DISCID=a407e00c
DTITLE=Dottie West - With All My Heart And Soul
DYEAR=1967
DGENRE=Country
TTITLE0=Paper Mansions
TTITLE1=Don't Touch Me
TTITLE2=No One To Cry To
TTITLE3=A Way To Survive
TTITLE4=Don't Keep Me Lonely Too Long
TTITLE5=Loving On Borrowed Time
TTITLE6=Almost Persuaded
TTITLE7=The Tip Of My Fingers
TTITLE8=With All My Heart And Soul
TTITLE9=It's Teardrop Time
TTITLE10=Someone's Gotta Cry
TTITLE11=How Many Lifetimes Will It Take?
EXTD=
EXTT0=
EXTT1=
EXTT2=
EXTT3=
EXTT4=
EXTT5=
EXTT6=
EXTT7=
EXTT8=
EXTT9=
EXTT10=
EXTT11=
PLAYORDER=
